<?xml version="1.0" encoding="UTF-8"?>
<!DOCTYPE svg PUBLIC "-//W3C//DTD SVG 1.1//EN" "http://www.w3.org/Graphics/SVG/1.1/DTD/svg11.dtd">
<!-- Creator: CorelDRAW 2017 -->
<svg xmlns="http://www.w3.org/2000/svg" xml:space="preserve" width="1.99999in" height="1.99999in" version="1.1" style="shape-rendering:geometricPrecision; text-rendering:geometricPrecision; image-rendering:optimizeQuality; fill-rule:evenodd; clip-rule:evenodd"
viewBox="0 0 2000 2000"
 xmlns:xlink="http://www.w3.org/1999/xlink">
 <defs>
  <style type="text/css">
   <![CDATA[
    .fil0 {fill:none}
    .fil1 {fill:#2B2A29}
   ]]>
  </style>
 </defs>
 <g id="Layer_x0020_1">
  <metadata id="CorelCorpID_0Corel-Layer"/>
  <g id="_2072350859856">
   <rect class="fil0" width="2000" height="2000"/>
   <g>
    <path class="fil1" d="M994 581c138,0 250,112 250,250 0,125 -91,228 -210,247 291,22 287,315 287,315l0 200 -653 0 -2 -156c0,0 -8,-331 291,-359 -121,-18 -214,-122 -214,-248 0,-138 112,-250 250,-250z"/>
    <path class="fil1" d="M1560 406c138,0 250,112 250,250 0,125 -91,228 -210,247 291,22 287,315 287,315l0 200 -503 0c-4,-164 -70,-262 -123,-314 34,-89 106,-186 262,-201 -121,-18 -214,-122 -214,-248 0,-138 112,-250 250,-250z"/>
    <path class="fil1" d="M440 406c-138,0 -250,112 -250,250 0,125 91,228 210,247 -291,22 -287,315 -287,315l0 200 503 0c4,-164 70,-262 123,-314 -34,-89 -106,-186 -262,-201 121,-18 214,-122 214,-248 0,-138 -112,-250 -250,-250z"/>
   </g>
  </g>
 </g>
</svg>
