<?xml version="1.0" encoding="UTF-8"?>
<!DOCTYPE svg PUBLIC "-//W3C//DTD SVG 1.1//EN" "http://www.w3.org/Graphics/SVG/1.1/DTD/svg11.dtd">
<!-- Creator: CorelDRAW 2017 -->
<svg xmlns="http://www.w3.org/2000/svg" xml:space="preserve" width="1.99999in" height="1.99999in" version="1.1" style="shape-rendering:geometricPrecision; text-rendering:geometricPrecision; image-rendering:optimizeQuality; fill-rule:evenodd; clip-rule:evenodd"
viewBox="0 0 2000 2000"
 xmlns:xlink="http://www.w3.org/1999/xlink">
 <defs>
  <style type="text/css">
   <![CDATA[
    .str0 {stroke:#2B2A29;stroke-width:3}
    .fil0 {fill:none}
    .fil1 {fill:#2B2A29}
   ]]>
  </style>
 </defs>
 <g id="Layer_x0020_1">
  <metadata id="CorelCorpID_0Corel-Layer"/>
  <g id="_2072353972704">
   <rect class="fil0" width="2000" height="2000"/>
   <g>
    <g>
     <path class="fil1 str0" d="M582 1024l0 144 196 0c0,0 65,103 127,131 62,28 133,22 163,13 30,-9 116,-58 163,-136l181 0 0 -157 -99 0c0,0 65,-306 15,-490 -50,-183 -295,-198 -422,-185 -127,13 -249,127 -256,254 -7,127 19,359 36,420l-103 6zm125 -422c0,0 348,26 353,-121 0,0 97,121 224,112 0,0 36,335 -80,538 -116,204 -346,174 -430,-54 0,0 108,52 155,50 0,0 11,45 77,43 65,-2 77,-32 78,-54 2,-22 -13,-62 -73,-67 -60,-6 -78,34 -78,34 0,0 -140,-9 -198,-114 0,0 -49,-120 -28,-366z"/>
     <path class="fil1" d="M602 624c0,0 -4,-314 385,-314 389,0 396,314 396,314l28 0c0,0 -30,-249 -86,-330 -56,-80 -176,-88 -269,-80 0,0 -88,-62 -226,-22 -138,39 -237,247 -241,424l0 7 13 1z"/>
     <path class="fil1" d="M1382 671c0,0 -13,241 -30,312 0,0 118,-9 148,-112 30,-103 -69,-196 -118,-200z"/>
     <path class="fil1" d="M616 671c0,0 13,241 30,312 0,0 -118,-9 -148,-112 -30,-103 69,-196 118,-200z"/>
    </g>
    <g>
     <path class="fil1" d="M1298 1185c0,0 273,75 415,176 142,101 108,325 108,325 0,0 -396,123 -617,131l224 -269 -56 -97 49 -15 -123 -250z"/>
     <path class="fil1" d="M1141 1822l-88 0c0,0 64,-84 129,-299 65,-215 78,-321 78,-321l108 192 -60 15 58 131 -226 282z"/>
    </g>
    <g>
     <path class="fil1" d="M702 1185c0,0 -273,75 -415,176 -142,101 -108,325 -108,325 0,0 396,123 617,131l-224 -269 56 -97 -49 -15 123 -250z"/>
     <path class="fil1" d="M859 1822l88 0c0,0 -64,-84 -129,-299 -65,-215 -78,-321 -78,-321l-108 192 60 15 -58 131 226 282z"/>
    </g>
   </g>
  </g>
 </g>
</svg>
