<?xml version="1.0" encoding="UTF-8"?>
<!DOCTYPE svg PUBLIC "-//W3C//DTD SVG 1.1//EN" "http://www.w3.org/Graphics/SVG/1.1/DTD/svg11.dtd">
<!-- Creator: CorelDRAW 2017 -->
<svg xmlns="http://www.w3.org/2000/svg" xml:space="preserve" width="1.99999in" height="1.99999in" version="1.1" style="shape-rendering:geometricPrecision; text-rendering:geometricPrecision; image-rendering:optimizeQuality; fill-rule:evenodd; clip-rule:evenodd"
viewBox="0 0 2000 2000"
 xmlns:xlink="http://www.w3.org/1999/xlink">
 <defs>
  <style type="text/css">
   <![CDATA[
    .str0 {stroke:#2B2A29;stroke-width:19.685}
    .fil0 {fill:none}
    .fil1 {fill:#2B2A29}
   ]]>
  </style>
 </defs>
 <g id="Layer_x0020_1">
  <metadata id="CorelCorpID_0Corel-Layer"/>
  <g id="_2072350826064">
   <rect class="fil0" width="2000" height="2000"/>
   <g>
    <polygon class="fil0 str0" points="480,619 783,479 1078,619 1078,928 786,1074 482,928 "/>
    <polyline class="fil0 str0" points="480,619 786,742 1077,619 "/>
    <line class="fil0 str0" x1="786" y1="742" x2="786" y2= "1074" />
    <path class="fil1" d="M663 532l295 132 4 8 1 84c0,0 -5,23 -24,24 -19,1 -31,-12 -33,-23 -3,-11 -3,-60 -3,-60l-281 -128 -17 -8 60 -29z"/>
    <path class="fil0 str0" d="M793 237c304,0 550,246 550,550 0,304 -246,550 -550,550 -304,0 -550,-246 -550,-550 0,-304 246,-550 550,-550zm0 122c236,0 428,192 428,428 0,236 -192,428 -428,428 -236,0 -428,-192 -428,-428 0,-236 192,-428 428,-428z"/>
    <g>
     <rect class="fil0 str0" transform="matrix(0.491348 0.486847 -0.513536 0.518283 1325.66 1170.06)" width="969" height="321" rx="161" ry="161"/>
     <line class="fil0 str0" x1="1218" y1="1127" x2="1313" y2= "1218" />
     <line class="fil0 str0" x1="1116" y1="1226" x2="1211" y2= "1316" />
    </g>
    <rect class="fil1" x="493" y="1679" width="96" height="40" rx="20" ry="20"/>
    <rect class="fil1" transform="matrix(0.7293 -0.0214055 0.0214055 0.7293 610.734 1674.5)" width="132" height="55" rx="28" ry="28"/>
    <rect class="fil1" transform="matrix(0.726529 -0.0670262 0.0670262 0.726529 727.305 1664.59)" width="132" height="55" rx="28" ry="28"/>
    <rect class="fil1" transform="matrix(0.723801 -0.0919169 0.0919169 0.723801 839.854 1647.3)" width="132" height="55" rx="28" ry="28"/>
    <rect class="fil1" transform="matrix(0.710926 -0.164077 0.164077 0.710926 951.767 1626.12)" width="132" height="55" rx="28" ry="28"/>
    <rect class="fil1" transform="matrix(0.589888 0.429381 -0.429381 0.589888 962.786 1371.29)" width="132" height="55" rx="28" ry="28"/>
    <rect class="fil1" transform="matrix(0.51594 0.51589 -0.51589 0.51594 1058.7 1439.21)" width="132" height="55" rx="28" ry="28"/>
    <path class="fil1" d="M901 1326l28 23c9,7 10,20 3,28l0 0c-7,9 -20,10 -28,3l-43 -35c-4,-3 -6,-7 -7,-12 16,-2 32,-4 47,-7z"/>
    <path class="fil1" d="M1073 1587c6,-3 9,-5 14,-8 7,-4 15,-11 17,-26 2,-10 14,-16 27,-10 8,3 19,21 7,36 -12,15 -23,30 -41,40 -10,5 -21,5 -28,-4l0 0c-8,-8 -6,-23 4,-28z"/>
    <path class="fil1" d="M704 1157l33 45c2,3 3,6 4,10 -18,-2 -36,-6 -54,-10l-15 -21c-7,-9 -5,-22 4,-28l0 0c9,-7 22,-5 28,4z"/>
    <rect class="fil1" transform="matrix(-0.00432781 0.729601 -0.729601 -0.00432781 689.97 1039.54)" width="132" height="55" rx="28" ry="28"/>
    <rect class="fil1" transform="matrix(-0.729584 -0.00662928 0.00662928 -0.729584 1174.96 757.699)" width="132" height="55" rx="28" ry="28"/>
    <path class="fil1" d="M1220 766l-16 0c-11,0 -20,-9 -20,-20l0 0c0,-11 9,-20 20,-20l11 0c2,13 3,27 4,40z"/>
    <path class="fil1" d="M1402 747l-55 10c-2,0 -3,0 -5,0 -1,-13 -2,-26 -3,-39 1,0 1,0 2,0l55 -10c11,-2 21,5 23,16l0 0c2,11 -5,21 -16,23z"/>
    <rect class="fil1" transform="matrix(-0.654882 0.321661 -0.321661 -0.654882 1527.76 689.087)" width="132" height="55" rx="28" ry="28"/>
    <rect class="fil1" transform="matrix(-0.599597 0.415717 -0.415717 -0.599597 1620.77 618.358)" width="132" height="55" rx="28" ry="28"/>
    <g>
     <path class="fil0 str0" d="M1694 480c38,10 65,32 65,58 0,35 -48,63 -108,63 -59,0 -108,-28 -108,-63 0,-25 26,-47 63,-57 24,31 45,56 45,56 9,-13 25,-34 43,-56z"/>
     <path class="fil0 str0" d="M1652 536c26,-37 106,-130 107,-169 1,-27 -5,-73 -42,-99 -55,-38 -111,-15 -136,5 -25,20 -44,60 -35,98 4,48 106,165 106,165z"/>
     <circle class="fil1" cx="1652" cy="356" r="52"/>
    </g>
    <g>
     <path class="fil0 str0" d="M392 1643c38,10 65,32 65,58 0,35 -48,63 -108,63 -59,0 -108,-28 -108,-63 0,-25 26,-47 63,-57 24,31 45,56 45,56 9,-13 25,-34 43,-56z"/>
     <path class="fil0 str0" d="M349 1699c26,-37 106,-130 107,-169 1,-27 -5,-73 -42,-99 -55,-38 -111,-15 -136,5 -25,20 -44,60 -35,98 4,48 106,165 106,165z"/>
     <circle class="fil1" cx="350" cy="1518" r="52"/>
    </g>
   </g>
  </g>
 </g>
</svg>
