<?xml version="1.0" encoding="UTF-8"?>
<!DOCTYPE svg PUBLIC "-//W3C//DTD SVG 1.1//EN" "http://www.w3.org/Graphics/SVG/1.1/DTD/svg11.dtd">
<!-- Creator: CorelDRAW 2017 -->
<svg xmlns="http://www.w3.org/2000/svg" xml:space="preserve" width="1.99999in" height="1.99999in" version="1.1" style="shape-rendering:geometricPrecision; text-rendering:geometricPrecision; image-rendering:optimizeQuality; fill-rule:evenodd; clip-rule:evenodd"
viewBox="0 0 2000 2000"
 xmlns:xlink="http://www.w3.org/1999/xlink">
 <defs>
  <style type="text/css">
   <![CDATA[
    .fil1 {fill:none}
    .fil0 {fill:#2B2A29}
   ]]>
  </style>
 </defs>
 <g id="Layer_x0020_1">
  <metadata id="CorelCorpID_0Corel-Layer"/>
  <path class="fil0" d="M488 1244c0,0 -8,110 -172,152 -163,42 -231,62 -223,239l635 0 438 0 735 0c0,0 39,-185 -94,-257 -133,-71 -253,-88 -331,-188l10 -101c0,0 52,-88 58,-120 0,0 39,-34 48,-97 10,-63 -3,-89 -26,-83 0,0 -5,-67 13,-107 18,-41 24,-89 15,-102 -10,-13 -24,0 -24,0 0,0 13,-52 5,-78 0,0 -2,55 -28,47 0,0 -24,-125 -141,-154 0,0 16,23 7,55 0,0 -45,-49 -123,-78 -78,-29 -130,32 -130,32 0,0 45,-7 65,23 0,0 -120,13 -153,91 0,0 10,-6 42,0 0,0 -78,42 -68,175 0,0 3,-20 16,-49 0,0 6,127 13,156 0,0 -32,-20 -32,39 0,58 10,133 45,143 0,0 29,75 58,97 0,0 19,104 -10,146 -29,42 -166,101 -211,104 -13,1 -37,9 -65,24 -64,-48 -82,-108 -82,-108 0,0 45,-3 68,-8 0,0 8,-8 -20,-31 0,0 73,6 118,-25 0,0 -31,-11 -39,-34 0,0 93,-14 87,-76 0,0 -93,28 -76,-116 17,-144 51,-501 -256,-515 -307,-14 -341,220 -313,504 0,0 31,135 -73,130 0,0 -6,65 76,68 0,0 20,39 -28,39 0,0 48,34 115,17 0,0 6,34 -25,37 0,0 20,6 76,8z"/>
  <rect class="fil1" width="2000" height="2000"/>
 </g>
</svg>
