<?xml version="1.0" encoding="UTF-8"?>
<!DOCTYPE svg PUBLIC "-//W3C//DTD SVG 1.1//EN" "http://www.w3.org/Graphics/SVG/1.1/DTD/svg11.dtd">
<!-- Creator: CorelDRAW 2017 -->
<svg xmlns="http://www.w3.org/2000/svg" xml:space="preserve" width="1.99999in" height="1.99999in" version="1.1" style="shape-rendering:geometricPrecision; text-rendering:geometricPrecision; image-rendering:optimizeQuality; fill-rule:evenodd; clip-rule:evenodd"
viewBox="0 0 2000 2000"
 xmlns:xlink="http://www.w3.org/1999/xlink">
 <defs>
  <style type="text/css">
   <![CDATA[
    .str0 {stroke:#2B2A29;stroke-width:19.685}
    .str2 {stroke:#2B2A29;stroke-width:9.84252}
    .str3 {stroke:#2B2A29;stroke-width:7.87402}
    .str1 {stroke:#2B2A29;stroke-width:3}
    .fil0 {fill:none}
    .fil1 {fill:#2B2A29}
   ]]>
  </style>
 </defs>
 <g id="Layer_x0020_1">
  <metadata id="CorelCorpID_0Corel-Layer"/>
  <g id="_2072355790288">
   <rect class="fil0" width="2000" height="2000"/>
   <rect class="fil0 str0" x="195" y="198" width="1600" height="1600"/>
   <path class="fil1 str1" d="M1113 1710l551 0c0,0 18,-87 -44,-121 -63,-34 -119,-41 -156,-89l5 -47c0,0 24,-41 27,-56 0,0 18,-16 23,-46 5,-30 -2,-42 -12,-39 0,0 -2,-31 6,-50 8,-19 11,-42 7,-48 -5,-6 -11,0 -11,0 0,0 6,-24 2,-37 0,0 -1,26 -13,22 0,0 -11,-59 -66,-73 0,0 8,11 3,26 0,0 -21,-23 -58,-37 -37,-14 -61,15 -61,15 0,0 21,-3 31,11 0,0 -56,6 -72,43 0,0 5,-3 20,0 0,0 -37,20 -32,82 0,0 2,-9 8,-23 0,0 3,60 6,73 0,0 -15,-9 -15,18 0,27 5,63 21,67 0,0 14,35 27,46 0,0 9,49 -5,69 -14,20 -78,47 -99,49 -21,2 -114,46 -92,143z"/>
   <path class="fil1" d="M540 1517c0,0 -4,56 -88,78 -83,22 -118,32 -114,122l548 0c0,0 17,-102 -79,-114 -96,-12 -119,-85 -119,-85 0,0 23,-1 35,-4 0,0 4,-4 -10,-16 0,0 37,3 60,-13 0,0 -16,-6 -20,-17 0,0 47,-7 45,-39 0,0 -47,14 -39,-59 9,-73 26,-256 -131,-263 -157,-7 -174,112 -160,258 0,0 16,69 -37,66 0,0 -3,33 39,35 0,0 10,20 -14,20 0,0 24,17 59,9 0,0 3,17 -13,19 0,0 10,3 39,4z"/>
   <path class="fil1 str1" d="M892 916l-551 0c0,0 -18,-87 44,-121 63,-34 119,-41 156,-89l-5 -47c0,0 -24,-41 -27,-56 0,0 -18,-16 -23,-46 -5,-30 2,-42 12,-39 0,0 2,-31 -6,-50 -8,-19 -11,-42 -7,-48 5,-6 11,0 11,0 0,0 -6,-24 -2,-37 0,0 1,26 13,22 0,0 11,-59 66,-73 0,0 -8,11 -3,26 0,0 21,-23 58,-37 37,-14 61,15 61,15 0,0 -21,-3 -31,11 0,0 56,6 72,43 0,0 -5,-3 -20,0 0,0 37,20 32,82 0,0 -2,-9 -8,-23 0,0 -3,60 -6,73 0,0 15,-9 15,18 0,27 -5,63 -21,67 0,0 -14,35 -27,46 0,0 -9,49 5,69 14,20 78,47 99,49 21,2 114,46 92,143z"/>
   <path class="fil1 str1" d="M1137 911l499 0c0,0 24,-86 -67,-99 -91,-13 -115,-75 -118,-97 0,0 34,-27 34,-71 0,0 15,-6 30,-38 14,-32 5,-55 -6,-50 0,0 39,-128 -62,-151 0,0 32,-74 -54,-83 -86,-9 -59,80 -59,80 0,0 -94,21 -64,152 0,0 -14,0 -10,21 4,21 16,66 36,67 0,0 5,41 25,61 0,0 11,72 -72,95 -83,23 -115,34 -112,112z"/>
   <circle class="fil0 str2" cx="250" cy="259" r="23"/>
   <circle class="fil0 str2" cx="1729" cy="259" r="23"/>
   <circle class="fil0 str2" cx="250" cy="1735" r="23"/>
   <circle class="fil0 str2" cx="1729" cy="1735" r="23"/>
   <line class="fil0 str3" x1="993" y1="203" x2="997" y2= "1793" />
   <line class="fil0 str3" x1="1790" y1="996" x2="200" y2= "1000" />
  </g>
 </g>
</svg>
